<svg width="42" height="16" viewBox="0 0 42 16" fill="none" xmlns="http://www.w3.org/2000/svg">
<g clip-path="url(#clip0_173_90)">
<path d="M32.2094 6.56262C32.2094 6.42698 32.2094 6.29135 32.2094 6.15571C32.2061 5.88445 32.0845 5.73083 31.7952 5.70142C31.4697 5.66874 31.1442 5.61644 30.822 5.56252C30.3354 5.48081 30.0641 5.17032 30.1217 4.77485C30.1825 4.35978 30.554 4.12119 31.0455 4.18493C32.2653 4.34507 33.4834 4.50685 34.7032 4.66863C36.8699 4.95788 39.0365 5.25039 41.2032 5.53964C41.892 5.63115 42.1336 5.98249 41.9331 6.63779C41.4794 8.1167 41.0059 9.58907 40.5654 11.0712C40.4569 11.4373 40.2612 11.537 39.9062 11.4961C38.1143 11.2886 36.3208 11.0909 34.529 10.8899C31.976 10.6039 29.423 10.3163 26.87 10.0319C24.0853 9.72144 21.3021 9.41095 18.5174 9.10046C15.7195 8.7867 12.9215 8.47295 10.1253 8.15919C7.3142 7.8438 4.50313 7.53004 1.69207 7.21465C1.35178 7.17706 1.00327 7.17543 0.677779 7.08555C0.50517 7.03816 0.278312 6.8584 0.245434 6.70316C0.123785 6.13447 0.044878 5.55435 0.00542437 4.97422C-0.0307414 4.42515 0.329273 4.12119 0.89313 4.18002C2.97266 4.39737 5.0522 4.62124 7.13173 4.84349C8.17889 4.95461 9.22277 5.08698 10.2716 5.16378C10.4606 5.17686 10.7335 5.0069 10.8552 4.84022C11.9105 3.4038 12.9495 1.95431 13.972 0.495006C14.2284 0.128956 14.5326 -0.0197521 14.9715 0.00149192C18.1261 0.156737 21.2824 0.302176 24.4371 0.452518C25.8853 0.521153 27.332 0.589787 28.7802 0.658422C28.9857 0.668227 29.1912 0.66169 29.3951 0.687836C30.0493 0.769544 30.3009 1.2843 29.9491 1.83828C29.6285 2.34323 29.2668 2.82368 28.9611 3.3368C28.8296 3.55741 28.7375 3.83358 28.7293 4.08688C28.7013 4.94154 28.7293 5.79784 28.7145 6.65413C28.7079 7.01038 28.8444 7.16889 29.2077 7.1983C29.9836 7.26204 30.7579 7.35845 31.5321 7.44016C32.1256 7.50226 32.2094 7.42872 32.2144 6.85023C32.2144 6.75545 32.2144 6.66067 32.2144 6.56425L32.2094 6.56262ZM24.7264 1.8677C23.8798 1.82357 23.0332 1.78435 22.1866 1.73369C21.894 1.71572 21.6589 1.77291 21.6112 2.10465C21.4287 3.36785 21.2512 4.63105 21.0753 5.89425C21.0375 6.17042 21.1509 6.33711 21.4435 6.36816C23.2107 6.55608 24.9763 6.75055 26.7435 6.93194C27.2005 6.97933 27.3106 6.86657 27.3122 6.41391C27.3172 5.57232 27.3287 4.7291 27.3073 3.88751C27.2958 3.46263 27.3731 3.09331 27.6377 2.74687C27.7479 2.60306 27.8514 2.31219 27.7808 2.21087C27.6838 2.07196 27.4207 1.99679 27.2235 1.98372C26.3917 1.92652 25.5582 1.90201 24.7247 1.8677H24.7264ZM17.5327 1.52289C16.8373 1.48857 16.1419 1.42811 15.4466 1.43301C15.2394 1.43301 14.9616 1.56211 14.8383 1.72389C14.0854 2.72072 13.3638 3.74207 12.6388 4.76178C12.3445 5.17522 12.4596 5.41381 12.961 5.46774C13.6268 5.538 14.2909 5.60827 14.9567 5.67691C16.3409 5.82235 17.7267 5.96288 19.1108 6.11323C19.4429 6.14918 19.6336 6.03479 19.6813 5.69652C19.844 4.54281 20.0166 3.38909 20.1744 2.23538C20.2402 1.75657 20.1416 1.65362 19.6615 1.63074C18.953 1.59479 18.2428 1.55884 17.5343 1.52452L17.5327 1.52289ZM33.6199 6.82408C33.6199 6.89108 33.6199 6.95972 33.6199 7.02672C33.6215 7.61175 33.6445 7.64443 34.2199 7.71797C34.7197 7.78333 35.221 7.83236 35.7224 7.89282C36.3093 7.96309 36.4162 7.86831 36.4194 7.26694C36.4194 7.09045 36.4178 6.9156 36.4194 6.73911C36.4227 6.44986 36.2978 6.28972 35.992 6.2554C35.3838 6.18676 34.7772 6.09362 34.1689 6.02008C33.735 5.96779 33.6347 6.06257 33.6215 6.49725C33.6182 6.60511 33.6215 6.7146 33.6215 6.82245L33.6199 6.82408ZM37.8233 7.32904C37.8233 7.39604 37.8233 7.46467 37.8233 7.53167C37.825 8.07911 37.8529 8.10853 38.4184 8.17063C38.7571 8.20821 39.0941 8.27848 39.4311 8.27685C39.6201 8.27685 39.9308 8.20494 39.9752 8.08729C40.1116 7.72614 40.1577 7.3274 40.207 6.93847C40.2119 6.89599 40.0179 6.7963 39.9078 6.77833C39.3702 6.69335 38.831 6.62145 38.2918 6.55445C37.9943 6.5185 37.8217 6.64759 37.8217 6.96299C37.8217 7.08391 37.8217 7.20648 37.8217 7.3274L37.8233 7.32904Z" fill="white"/>
<path d="M26.7298 15.977C22.9012 15.977 19.0709 16.0375 15.2439 15.9591C11.7457 15.8888 8.43814 15.0113 5.42816 13.181C3.79906 12.1907 2.39517 10.9553 1.37266 9.33421C1.27567 9.1806 1.19019 8.91423 1.26087 8.79003C1.32499 8.67401 1.61267 8.62008 1.79021 8.63969C4.91526 8.97633 8.03703 9.3293 11.1604 9.67738C14.1885 10.0156 17.2182 10.349 20.2463 10.6889C23.0442 11.001 25.8405 11.3197 28.6384 11.6318C31.4215 11.944 34.2063 12.2528 36.9894 12.5617C37.7768 12.6499 38.5659 12.7316 39.3533 12.8231C39.8629 12.8836 39.9517 13.0307 39.7988 13.534C39.6048 14.1697 39.3911 14.8005 39.2185 15.441C39.11 15.8479 38.9013 16.0016 38.464 15.9999C34.5531 15.9852 30.6423 15.9918 26.7315 15.9918C26.7315 15.9868 26.7315 15.9836 26.7315 15.9787L26.7298 15.977Z" fill="white"/>
</g>
<defs>
<clipPath id="clip0_173_90">
<rect width="42" height="16" fill="white"/>
</clipPath>
</defs>
</svg>
