<svg width="23" height="20" viewBox="0 0 23 20" fill="none" xmlns="http://www.w3.org/2000/svg">
<g clip-path="url(#clip0_173_81)">
<path d="M19.1643 17.506H3.83667C3.83667 17.8965 3.83667 18.275 3.83667 18.6536C3.83177 19.4538 3.30999 19.9784 2.49915 19.9952C2.10965 20.0024 1.72015 20.0048 1.33065 19.9952C0.534509 19.976 0.00292969 19.4514 0.00292969 18.6751C0.00292969 15.4264 0.00292969 12.1778 0.00292969 8.92909C0.00292969 8.79732 0.0323258 8.65836 0.0788696 8.53139C0.914209 6.16435 1.75445 3.79971 2.59714 1.43507C2.94989 0.44322 3.5917 0 4.66956 0C9.22106 0 13.7726 0 18.3216 0C19.4215 0 20.0486 0.436033 20.4087 1.44945C21.2465 3.8045 22.0843 6.15956 22.9147 8.51701C22.9686 8.67034 22.9956 8.84044 22.9956 9.00096C23.0005 12.1921 23.0005 15.3809 22.998 18.5721C22.998 19.4969 22.4885 19.9928 21.5331 19.9952C21.1926 19.9952 20.8546 20 20.5141 19.9952C19.6983 19.9808 19.1692 19.4586 19.1643 18.6679C19.1643 18.2894 19.1643 17.9109 19.1643 17.5084V17.506ZM20.4259 7.48443C20.4014 7.39818 20.3867 7.34308 20.3695 7.28797C19.7816 5.56061 19.1888 3.83325 18.6107 2.1035C18.5421 1.89746 18.4245 1.8735 18.2359 1.8735C13.7456 1.87829 9.2578 1.87829 4.76755 1.87111C4.53238 1.87111 4.44419 1.95256 4.37315 2.1586C3.80728 3.84284 3.2316 5.52228 2.65838 7.20173C2.62898 7.28797 2.60938 7.37901 2.57999 7.48443H20.4259ZM20.4357 11.8735C20.4357 10.8385 19.5979 10.0072 18.5445 10C17.4838 9.99281 16.6117 10.8337 16.6093 11.8687C16.6093 12.8917 17.4642 13.735 18.5102 13.7422C19.5783 13.7494 20.4332 12.9181 20.4357 11.8735ZM2.56529 11.8855C2.57019 12.9181 3.41778 13.7446 4.47114 13.7446C5.5294 13.7446 6.40148 12.8893 6.38923 11.8591C6.37699 10.8313 5.52205 10 4.47359 10C3.40798 10 2.55794 10.8385 2.56529 11.8855Z" fill="white"/>
</g>
<defs>
<clipPath id="clip0_173_81">
<rect width="23" height="20" fill="white"/>
</clipPath>
</defs>
</svg>
