<svg width="43" height="17" viewBox="0 0 43 17" fill="none" xmlns="http://www.w3.org/2000/svg">
<g clip-path="url(#clip0_173_94)">
<path d="M13.7941 14.7277C14.6011 11.478 13.1009 9.15783 11.5604 8.06847C9.69958 6.75131 7.19282 6.72375 5.29699 8.0207C3.23837 9.42788 2.45939 11.6654 2.97579 14.6873C1.78018 14.8049 0.428771 13.6935 0.141685 12.3249C-0.07188 11.3072 -0.0578758 10.2784 0.272974 9.29561C0.729862 7.93987 0.878657 6.6172 0.342995 5.23758C0.104923 4.62217 0.528551 4.08392 1.17625 4.06371C1.75742 4.04534 2.3421 4.0435 2.92328 4.06371C3.51495 4.08392 4.06287 3.93144 4.53201 3.58057C6.76744 1.91253 9.31446 1.10056 11.9665 0.59721C15.4116 -0.0567777 18.8758 -0.200067 22.3542 0.301446C23.8333 0.514543 25.176 1.14649 26.4942 1.82252C27.695 2.43793 28.8801 3.09559 30.0285 3.81387C30.7339 4.25476 31.4884 4.39254 32.2656 4.50276C35.3606 4.94549 38.3505 5.84564 41.3246 6.81009C41.9968 7.0287 42.4222 7.50817 42.6218 8.23013C43.0927 9.94776 43.1907 11.6489 42.5308 13.3426C42.1649 14.2832 41.5032 14.7516 40.5421 14.7608C40.1378 14.7645 39.7334 14.7608 39.315 14.7608C39.9242 11.8767 39.231 9.5032 36.8293 7.9362C34.8547 6.64659 32.747 6.68517 30.811 8.03907C28.5405 9.62812 27.8876 11.9446 28.4863 14.7259H13.7958L13.7941 14.7277ZM17.8921 2.04113C18.1301 3.22234 18.3647 4.37785 18.594 5.51681C18.692 5.52967 18.7341 5.54069 18.7778 5.54069C21.836 5.54069 24.8942 5.54621 27.9506 5.53335C28.1747 5.53335 28.3987 5.41026 28.7138 5.31841C25.3476 3.10661 21.913 1.59472 17.8921 2.03929V2.04113ZM16.0908 2.09256C13.7415 2.19176 11.4711 2.53896 9.15341 3.32522C9.67332 3.9737 10.139 4.57073 10.6274 5.14573C10.7061 5.23942 10.8917 5.25779 11.03 5.26881C11.7127 5.32392 12.3954 5.37536 13.0781 5.40659C14.2965 5.4617 15.5166 5.50212 16.7962 5.54988C16.5581 4.38336 16.3306 3.27011 16.089 2.09256H16.0908Z" fill="white"/>
<path d="M37.8274 12.9731C37.8239 15.2235 36.1101 17.0109 33.9622 16.9999C31.8528 16.9907 30.132 15.1757 30.1338 12.9657C30.1355 10.7448 31.8913 8.9169 34.013 8.92975C36.1276 8.94261 37.8309 10.7466 37.8274 12.9713V12.9731Z" fill="white"/>
<path d="M8.46542 17C6.35078 16.9945 4.64052 15.196 4.63527 12.975C4.63001 10.7467 6.37354 8.92249 8.50043 8.93168C10.6098 8.94086 12.3271 10.7485 12.3288 12.9658C12.3306 15.2052 10.6063 17.0073 8.46542 17.0018V17Z" fill="white"/>
</g>
<defs>
<clipPath id="clip0_173_94">
<rect width="43" height="17" fill="white"/>
</clipPath>
</defs>
</svg>
