<svg width="28" height="25" viewBox="0 0 28 25" fill="none" xmlns="http://www.w3.org/2000/svg">
<g clip-path="url(#clip0_173_99)">
<path d="M5.10604 22.1977C4.67642 21.0903 4.26883 20.0391 3.86123 18.988C3.29391 17.5293 2.72658 16.0734 2.16201 14.6147C1.98024 14.1454 2.10417 13.9009 2.58888 13.7716C6.3123 12.7794 10.0357 11.7845 13.7591 10.7952C13.9023 10.7586 14.0703 10.7446 14.2108 10.7811C17.9452 11.7705 21.6769 12.7682 25.4058 13.766C25.9071 13.9009 26.0227 14.1426 25.8327 14.6288C24.8936 17.0459 23.9545 19.4602 23.0154 21.8744C22.9796 21.9672 22.9465 22.0599 22.908 22.1611C23.2494 22.2033 23.5772 22.1977 23.8746 22.2876C24.4199 22.4562 24.9624 22.6558 25.4802 22.8975C26.0035 23.142 26.5377 23.2853 27.1106 23.3022C27.6641 23.3191 28.0249 23.676 28.0029 24.1707C27.9808 24.6625 27.587 24.9829 27.0417 24.9745C26.1081 24.9633 25.2544 24.6766 24.4364 24.2381C23.5882 23.7856 22.6876 23.7603 21.7761 23.988C21.4869 24.0583 21.2115 24.1988 20.9443 24.3337C19.2561 25.1965 17.5597 25.2162 15.8825 24.3393C14.8883 23.8222 13.8748 23.7126 12.8173 24.0386C12.5501 24.1229 12.2995 24.2634 12.0461 24.3871C10.4323 25.174 8.80468 25.2022 7.20735 24.3871C6.32332 23.9346 5.42551 23.7266 4.46436 23.9318C4.06227 24.0161 3.66845 24.1932 3.29666 24.3787C2.55583 24.7525 1.78196 24.9492 0.958508 24.9689C0.418722 24.9801 0.0221448 24.6429 0.0111288 24.151C-0.00264127 23.662 0.352626 23.3135 0.889657 23.2966C1.41292 23.2769 1.92516 23.201 2.3961 22.9509C3.23607 22.5068 4.10358 22.1583 5.11706 22.1892L5.10604 22.1977ZM22.1974 15.8205C22.1974 15.3989 21.9358 15.101 21.4373 14.9661C19.0716 14.3337 16.7059 13.6985 14.3347 13.0774C14.1254 13.0212 13.8776 13.0296 13.6683 13.083C12.7842 13.2994 11.9057 13.5439 11.0272 13.78C9.49593 14.1875 7.9647 14.5951 6.43348 15.0082C6.06168 15.1094 5.82209 15.4186 5.80556 15.7924C5.79179 16.1353 6.0066 16.4978 6.33709 16.585C6.53813 16.6384 6.77497 16.6299 6.97602 16.5793C9.25909 15.9835 11.5367 15.3736 13.817 14.7749C13.9326 14.744 14.0703 14.7412 14.186 14.7721C15.72 15.174 17.2485 15.5844 18.7797 15.9919C19.5453 16.1971 20.3109 16.4051 21.0765 16.6046C21.6797 16.762 22.1974 16.3966 22.1947 15.8233L22.1974 15.8205Z" fill="white"/>
<path d="M5.57959 11.2252V10.6687C5.57959 9.11729 5.57959 7.56305 5.57959 6.01162C5.57959 5.4748 5.7586 5.29492 6.28737 5.29492C11.4263 5.29492 16.5681 5.29492 21.7071 5.29492C22.2386 5.29492 22.4176 5.4748 22.4176 6.00881C22.4176 7.6558 22.4176 9.29998 22.4176 10.947C22.4176 11.0285 22.4176 11.1128 22.4176 11.2393C22.0513 11.1437 21.7126 11.0566 21.3738 10.9666C19.0494 10.3455 16.7278 9.71876 14.4007 9.11448C14.1501 9.04984 13.8526 9.04984 13.5993 9.11448C10.9995 9.79464 8.4052 10.4917 5.80817 11.1859C5.74758 11.2027 5.68424 11.2084 5.57959 11.2308V11.2252Z" fill="white"/>
<path d="M11.5473 3.6004C11.5473 2.79657 11.5032 1.99556 11.5611 1.20579C11.6107 0.528446 12.2331 0.0309758 12.9381 0.0141124C13.6486 -0.00275101 14.3592 -0.00275101 15.0697 0.0141124C15.8766 0.0365969 16.4577 0.64649 16.4687 1.45874C16.477 2.1642 16.4687 2.86965 16.4687 3.59759H11.5473V3.6004Z" fill="white"/>
</g>
<defs>
<clipPath id="clip0_173_99">
<rect width="28" height="25" fill="white"/>
</clipPath>
</defs>
</svg>
