<svg width="61" height="43" viewBox="0 0 61 43" fill="none" xmlns="http://www.w3.org/2000/svg">
<g clip-path="url(#clip0_173_145)">
<path d="M46.949 3.83136C41.8925 3.83136 36.8328 3.81178 31.7763 3.84115C29.4504 3.85421 27.1278 4.02717 24.8019 3.9978C22.0121 3.95864 19.2289 3.71714 16.4391 3.67798C13.2973 3.63229 10.1556 3.69756 7.01376 3.75304C6.09261 3.76936 5.7077 4.1414 5.64849 5.02907C5.54321 6.62493 5.47412 8.22731 5.4511 9.82643C5.42478 11.5887 5.47741 13.3543 5.4807 15.1198C5.4807 15.6061 5.54979 15.9325 6.17815 15.9684C6.90191 16.0075 7.24076 16.5101 7.14865 17.2118C7.08614 17.6882 6.91836 18.1549 6.79006 18.6216C6.24723 20.5797 5.70112 22.5378 5.14843 24.4959C5.05961 24.8092 4.9313 25.1094 4.83919 25.4227C4.64838 26.0787 4.17793 26.5617 3.53971 26.3953C3.07584 26.2745 2.53631 25.7883 2.36853 25.3412C1.94743 24.2022 1.73688 22.9882 1.40132 21.8166C1.01312 20.4622 0.58873 19.1144 0.157762 17.7731C-0.204119 16.6374 0.0130099 16.2033 1.1809 15.9945C1.65134 15.9096 1.83886 15.7073 1.83886 15.2439C1.83557 11.9085 1.89808 8.56998 1.82571 5.23467C1.76649 2.36931 3.8325 -0.00326015 6.70781 3.36274e-06C11.0274 0.00653038 15.3502 0.150125 19.6697 0.19255C25.825 0.254557 31.9803 0.287192 38.1355 0.319827C42.9255 0.345935 47.7122 0.352462 52.5022 0.365516C53.2688 0.365516 54.0353 0.339408 54.7985 0.365516C57.0192 0.443841 58.6608 1.64155 59.049 3.81831C59.3615 5.56102 59.3418 7.36901 59.3845 9.15088C59.4339 11.1025 59.3911 13.0573 59.3845 15.0121C59.3845 15.7758 59.197 15.9227 58.5193 15.6126C57.8285 15.2961 57.2165 15.3418 56.575 15.7334C55.9664 16.1054 55.7098 15.9814 55.7131 15.283C55.723 12.9757 55.769 10.6684 55.7986 8.36438C55.8118 7.44407 55.8513 6.52049 55.8315 5.60019C55.8118 4.69619 55.0683 4.03696 53.9991 3.97169C52.8246 3.8999 51.6502 3.85094 50.4724 3.82484C49.2946 3.80199 48.1202 3.81831 46.9424 3.81831C46.9424 3.82157 46.9424 3.8281 46.9424 3.83136H46.949Z" fill="white"/>
<path d="M26.368 39.3547C32.2502 39.3547 38.1324 39.3352 44.0147 39.3645C46.6926 39.3776 49.3672 39.5081 52.0451 39.5506C52.7261 39.5604 53.4104 39.4559 54.0881 39.3809C55.108 39.2666 55.5784 38.8293 55.6146 37.8144C55.6705 36.1337 55.6541 34.4497 55.6705 32.7657C55.687 31.1111 55.7001 29.4533 55.7265 27.7987C55.733 27.3222 55.6607 26.9795 55.0619 26.8816C54.1638 26.738 53.9236 26.3954 54.1473 25.5273C54.552 23.9575 55.0323 22.4041 55.4764 20.8409C55.7824 19.7704 56.0982 18.7033 56.3778 17.6263C56.539 17.0095 56.766 16.4123 57.4799 16.396C58.1642 16.3796 58.6577 16.8039 58.8452 17.4827C59.2433 18.9187 59.6413 20.3546 60.0164 21.8003C60.3421 23.06 60.6316 24.3296 60.9375 25.5925C61.1185 26.3366 60.931 26.7152 60.1743 26.787C59.4933 26.8522 59.3847 27.208 59.388 27.7628C59.4045 30.1778 59.4341 32.596 59.4045 35.011C59.3847 36.4731 59.3189 37.9417 59.1643 39.3972C58.9669 41.277 57.1345 42.925 55.2428 42.9446C51.0023 42.9838 46.7617 43.0131 42.5211 42.9838C34.4511 42.9316 26.3845 42.8271 18.3145 42.7586C14.4292 42.726 10.544 42.6313 6.66195 42.7357C3.28001 42.8271 1.83249 40.4121 1.67128 37.958C1.56272 36.3099 1.65154 34.6488 1.65812 32.9909C1.6647 31.2547 1.67128 29.5153 1.69102 27.7791C1.70418 26.8066 1.87196 26.6923 2.74377 27.097C3.38199 27.394 3.97087 27.5049 4.58936 27.0481C5.04665 26.7119 5.31312 26.9436 5.36576 27.4299C5.40853 27.8052 5.3855 28.1903 5.37892 28.5689C5.34602 31.0654 5.29009 33.562 5.28351 36.0619C5.27365 38.6303 5.62566 39.0545 8.22133 39.1361C11.0374 39.2275 13.8568 39.1655 16.6729 39.1687C19.9035 39.1687 23.1308 39.1687 26.3614 39.1687C26.3614 39.2307 26.3614 39.2927 26.3614 39.3547H26.368Z" fill="white"/>
<path d="M34.1387 30.5854C34.1156 30.9151 34.0696 31.2447 34.0696 31.5743C34.0696 32.3086 34.1025 33.0396 34.0959 33.7739C34.086 34.7301 33.813 34.9944 32.8754 34.9977C32.6286 34.9977 32.3819 34.9846 32.1385 34.9618C31.0298 34.8704 30.6482 34.5963 30.5659 33.4802C30.4639 32.103 30.4804 30.716 30.5001 29.3355C30.5264 27.5732 30.6153 25.8109 30.6679 24.0454C30.7107 22.6323 30.9475 22.1134 31.7634 22.0807C33.6485 21.9991 34.0235 21.9991 34.5302 23.4906C34.8591 24.4566 35.2243 25.4128 35.7474 26.3592C35.7869 26.1993 35.856 26.0426 35.8592 25.8827C35.8658 25.0668 35.8461 24.2542 35.856 23.4384C35.8658 22.5409 36.231 22.1525 37.1357 22.1003C37.4614 22.0807 37.7937 22.1134 38.1128 22.1688C39.1886 22.3614 39.3827 22.5246 39.3958 23.5983C39.4221 26.2287 39.3958 28.8623 39.3728 31.4927C39.3662 32.2531 39.3103 33.0102 39.2511 33.7674C39.1984 34.4723 38.7905 34.8476 38.0832 34.8867C37.7016 34.9096 37.3166 34.9194 36.935 34.9096C36.2244 34.8933 35.7671 34.5441 35.5303 33.8685C35.1486 32.7753 34.7407 31.6918 34.3426 30.6018L34.1387 30.5822V30.5854Z" fill="white"/>
<path d="M41.0111 14.6009C41.0111 13.3249 41.0012 12.0521 41.0176 10.7761C41.0242 10.2343 41.0571 9.68932 41.1394 9.15737C41.2479 8.44266 41.646 8.0543 42.4356 8.11631C43.9259 8.23379 45.449 8.16526 46.9064 8.45245C49.035 8.87018 50.1206 10.2865 50.1568 12.4437C50.1831 14.1505 50.1732 15.8671 50.0055 17.5609C49.7949 19.6659 48.7224 20.6547 46.6071 20.8375C45.301 20.9484 43.9851 20.9713 42.6757 20.9713C41.5144 20.9713 41.044 20.5013 41.0176 19.3232C40.9815 17.7502 41.0078 16.1772 41.0078 14.6042H41.0144L41.0111 14.6009ZM44.8273 14.5422C44.8273 14.5422 44.8042 14.5422 44.7944 14.5422C44.7944 15.1655 44.7845 15.7888 44.7977 16.4121C44.8042 16.7581 44.6003 17.2411 45.199 17.3031C45.7616 17.3618 46.0971 17.0551 46.1465 16.5166C46.232 15.5734 46.3208 14.6237 46.3143 13.6773C46.311 13.1454 46.1794 12.5906 45.982 12.0945C45.8899 11.8628 45.5083 11.7421 45.2582 11.5724C45.1135 11.8008 44.8635 12.0227 44.847 12.261C44.7944 13.0148 44.8273 13.7785 44.8273 14.5356V14.5422Z" fill="white"/>
<path d="M45.0281 26.9209C46.0052 26.3073 46.1203 25.2271 46.4 24.2383C46.4131 24.186 46.4 24.1306 46.4098 24.0751C46.5085 23.4942 46.0874 22.5902 46.8441 22.414C47.7323 22.2084 48.7259 22.3422 49.6503 22.476C49.8773 22.5086 50.1405 23.1026 50.1833 23.4615C50.3708 25.0835 49.9464 26.5913 49.0779 27.9587C48.7588 28.458 48.7752 28.768 49.1766 29.2282C50.3905 30.625 50.5419 32.322 50.3313 34.0647C50.2984 34.3388 50.0122 34.7859 49.8082 34.8055C48.9529 34.8936 48.0679 34.936 47.2257 34.799C46.9888 34.7598 46.8244 34.0745 46.6895 33.6633C46.4427 32.9029 46.2815 32.1131 46.0019 31.3658C45.9229 31.1536 45.4854 30.8697 45.3439 30.9285C45.1005 31.0296 44.8373 31.3592 44.8044 31.6203C44.7123 32.3448 44.7583 33.0856 44.7057 33.8167C44.6432 34.7043 44.3603 34.9589 43.4753 34.9883C41.1757 35.0699 40.952 34.8512 40.9487 32.5504C40.9487 29.5088 40.9619 26.4672 40.929 23.4257C40.9191 22.6816 41.1757 22.2965 41.9291 22.2443C42.1462 22.2279 42.3601 22.1659 42.5772 22.1431C44.1464 21.9864 44.6136 22.3715 44.6728 23.938C44.709 24.904 44.6794 25.8733 44.6794 26.8393C44.7945 26.8654 44.9097 26.8915 45.0281 26.9176V26.9209Z" fill="white"/>
<path d="M10.7608 28.5101C10.7608 26.9109 10.7345 25.3151 10.7707 23.716C10.797 22.6162 11.103 22.3094 12.2116 22.2768C13.4914 22.2376 14.7909 22.1462 16.0509 22.2996C18.3801 22.5835 19.6039 24.9235 18.5906 27.0545C18.2682 27.7333 18.1235 28.2 18.6761 28.9082C19.5677 30.0537 19.3374 32.9648 18.4689 34.1102C17.7879 35.0077 16.7384 35.0501 15.7943 35.1121C14.5244 35.1937 13.2315 35.0893 11.9616 34.9457C11.0141 34.8413 10.649 34.3452 10.6358 33.3857C10.6128 31.7605 10.6292 30.132 10.6292 28.5068C10.672 28.5068 10.7148 28.5068 10.7575 28.5068L10.7608 28.5101ZM16.0377 31.1176C15.9818 30.4127 15.7614 29.946 15.133 29.9101C14.4948 29.8742 14.3237 30.3442 14.2908 30.8826C14.2776 31.098 14.225 31.3232 14.2645 31.5288C14.327 31.8454 14.452 32.1521 14.5474 32.4622C14.929 32.299 15.3797 32.2109 15.6758 31.9531C15.9094 31.7475 15.9522 31.333 16.0344 31.1209L16.0377 31.1176ZM15.0672 25.054C14.2283 25.0116 14.3105 25.524 14.2809 25.9417C14.2513 26.3757 14.2974 26.7804 14.8994 26.7608C15.5048 26.7412 15.6561 26.379 15.6824 25.8438C15.7087 25.2727 15.4455 25.0507 15.0672 25.054Z" fill="white"/>
<path d="M29.3912 14.2582C29.3056 15.6092 29.3023 16.7254 29.1543 17.8219C28.9174 19.5842 27.6607 20.8602 25.8842 21.0495C24.9236 21.154 23.8774 21.1605 22.9727 20.8798C21.4692 20.4131 20.4165 19.3362 20.4001 17.6653C20.377 15.3971 20.456 13.1257 20.5382 10.8576C20.581 9.66314 21.3607 8.94516 22.3838 8.48174C24.1406 7.68219 25.8776 7.76704 27.5817 8.66776C28.4108 9.10508 28.9404 9.78062 29.0556 10.6944C29.2168 11.9541 29.2957 13.2236 29.3912 14.2582ZM23.9004 14.4605C23.9004 14.4605 23.884 14.4605 23.8774 14.4605C23.8774 15.1654 23.8642 15.8671 23.8807 16.572C23.8971 17.179 24.2492 17.5053 24.8413 17.5935C25.4697 17.6848 25.7197 17.2377 25.7394 16.7743C25.8019 15.2666 25.8118 13.7523 25.7789 12.2446C25.7658 11.7224 25.4039 11.4352 24.8216 11.5103C24.2557 11.5821 23.9037 11.8301 23.9037 12.4339C23.9037 13.1094 23.9037 13.7882 23.9037 14.4638L23.9004 14.4605Z" fill="white"/>
<path d="M39.5768 14.3757C39.5768 15.296 39.6065 16.2196 39.5703 17.1399C39.4946 19.1274 38.7281 20.3153 36.8397 20.844C34.1486 21.5946 32.303 21.1018 30.9937 19.0752C30.8226 18.8108 30.6515 18.4812 30.6515 18.1842C30.6417 15.8867 30.6022 13.586 30.714 11.2917C30.7897 9.7187 31.7142 8.74944 33.3031 8.34476C35.1027 7.88787 36.7476 7.96946 38.2543 9.17369C39.034 9.79376 39.4814 10.5509 39.5045 11.5332C39.5275 12.4829 39.511 13.4293 39.511 14.379C39.5308 14.379 39.5505 14.379 39.5703 14.379L39.5768 14.3757ZM34.0368 14.6401H33.9841C34.0269 15.4005 33.9644 16.1837 34.1552 16.9017C34.2539 17.2737 34.7704 17.7078 35.1553 17.7698C35.3955 17.8089 35.9778 17.2346 36.0041 16.9017C36.1258 15.4723 36.139 14.0331 36.1061 12.5971C36.0929 11.9477 35.5402 11.8106 34.9678 11.8204C34.3855 11.8302 34.1355 12.1337 34.1223 12.6885C34.1026 13.3379 34.0664 13.9906 34.0368 14.6401Z" fill="white"/>
<path d="M27.9108 34.9814C27.5818 34.9814 27.2067 35.0826 26.937 34.9586C26.5619 34.7856 26.1671 34.5017 25.9599 34.1623C25.7296 33.7837 25.677 33.2909 25.5816 32.8405C25.4631 32.2825 25.1045 32.0932 24.5749 32.0932C24.0617 32.0932 23.8379 32.3739 23.7853 32.8438C23.7853 32.8699 23.7754 32.896 23.7689 32.9221C23.282 34.9618 22.5648 35.3828 20.479 34.8737C19.7849 34.704 19.6335 34.2536 19.7882 33.6401C20.127 32.2727 20.4692 30.902 20.8245 29.5379C21.3706 27.4394 21.943 25.3475 22.476 23.2426C22.6832 22.4136 23.1866 22.0677 24.0156 22.1036C24.3972 22.1199 24.7854 22.084 25.1637 22.1232C25.8711 22.1982 26.4172 22.5344 26.6244 23.2458C27.4337 26.0002 28.2332 28.7612 29.0359 31.5188C29.2102 32.116 29.3616 32.7231 29.5524 33.317C29.9801 34.6387 29.7432 34.9716 28.322 35.001C28.1838 35.001 28.0489 35.001 27.9108 35.001C27.9108 34.9945 27.9108 34.9879 27.9108 34.9847V34.9814ZM24.769 26.7541C24.6637 26.7476 24.5617 26.741 24.4564 26.7345C24.3183 27.1457 24.1439 27.5504 24.0518 27.9714C23.9959 28.2259 23.9926 28.7024 24.1011 28.7448C24.3972 28.8623 24.7887 28.8786 25.0914 28.7807C25.2065 28.7416 25.2493 28.2618 25.1966 28.0105C25.1078 27.583 24.917 27.1718 24.769 26.7574V26.7541Z" fill="white"/>
<path d="M14.6856 18.3051C14.6856 18.4943 14.6987 18.6869 14.6856 18.8762C14.6263 19.5028 14.9191 20.4068 14.1888 20.6189C13.3959 20.8473 12.4518 20.7657 11.6326 20.5765C11.3266 20.5047 11.0174 19.7606 10.9911 19.307C10.8891 17.3847 10.8792 15.456 10.8595 13.5305C10.8463 12.3655 10.8595 11.1971 10.8957 10.0321C10.945 8.51779 11.6359 7.84877 13.1657 7.88467C14.8862 7.92383 16.6035 8.025 18.3241 8.0968C19.0413 8.12617 19.4065 8.4721 19.4723 9.20313C19.6762 11.4419 19.3012 11.8596 17.0378 11.8009C16.6002 11.7911 16.1429 11.641 15.735 11.7356C15.4192 11.8074 14.9915 12.1174 14.9257 12.3916C14.8171 12.8648 15.2152 13.0932 15.6988 13.09C16.1627 13.09 16.6298 13.0802 17.0937 13.0998C17.7418 13.1259 18.1004 13.4783 18.1465 14.118C18.2386 15.4593 18.0445 16.422 16.2087 16.1903C15.9949 16.1642 15.7712 16.2001 15.5541 16.1968C14.9454 16.1903 14.6395 16.4383 14.6987 17.0845C14.7382 17.4892 14.7053 17.8971 14.7053 18.3051C14.6987 18.3051 14.6921 18.3051 14.6856 18.3051Z" fill="white"/>
</g>
<defs>
<clipPath id="clip0_173_145">
<rect width="61" height="43" fill="white"/>
</clipPath>
</defs>
</svg>
