<svg width="35" height="33" viewBox="0 0 35 33" fill="none" xmlns="http://www.w3.org/2000/svg">
<g clip-path="url(#clip0_173_39)">
<path d="M0.479948 14.8301L14.2399 1.07006C15.6699 -0.359941 17.9799 -0.359941 19.4099 1.07006L33.7899 15.4501C34.8099 16.4701 34.0899 18.2101 32.6499 18.2101H31.0099V29.6001C31.0099 31.0101 29.8599 32.1601 28.4499 32.1601H23.6699C22.2599 32.1601 21.1099 31.0101 21.1099 29.6001V25.2801C21.1099 23.8001 19.9099 22.5901 18.4199 22.5901H15.5499C14.0699 22.5901 12.8599 23.7901 12.8599 25.2801V29.6001C12.8599 31.0101 11.7099 32.1601 10.2999 32.1601H5.68995C4.27995 32.1601 3.12995 31.0101 3.12995 29.6001V17.6401L1.57995 17.5901C0.169948 17.5501 -0.510052 15.8301 0.489948 14.8301H0.479948Z" fill="white"/>
</g>
<defs>
<clipPath id="clip0_173_39">
<rect width="34.26" height="32.16" fill="white"/>
</clipPath>
</defs>
</svg>
