<svg width="32" height="36" viewBox="0 0 32 36" fill="none" xmlns="http://www.w3.org/2000/svg">
<g clip-path="url(#clip0_173_138)">
<path d="M5.53051 6.6748H26.757C26.757 6.91945 26.7791 7.22365 26.7523 7.52302C26.7081 7.98656 26.8691 8.36801 27.1564 8.69796C27.4879 9.07781 27.8273 9.44961 28.1872 9.80209C31.0712 12.6364 32.0309 16.1259 31.3742 20.066C30.7476 23.8274 29.7215 27.4923 28.4366 31.0799C27.3458 34.1235 24.746 35.9921 21.5652 35.9969C17.9409 36.0018 14.3166 36.0018 10.6939 35.9969C7.51314 35.9937 4.95434 34.1573 3.85095 31.1088C2.54866 27.5132 1.5163 23.8354 0.905409 20.0579C0.255054 16.039 1.26689 12.498 4.24716 9.65401C4.38134 9.52525 4.5092 9.39005 4.64495 9.26451C5.27321 8.67382 5.6931 7.99943 5.53682 7.07396C5.51314 6.93394 5.53367 6.78586 5.53367 6.6748H5.53051ZM10.1161 15.0266C9.51157 15.0266 8.90699 15.0443 8.30399 15.0201C7.88726 15.004 7.61575 15.1618 7.41212 15.5336C6.82333 16.6071 6.22033 17.6742 5.60312 18.7317C5.39633 19.0858 5.40265 19.39 5.60628 19.7392C6.21559 20.7854 6.81701 21.838 7.39633 22.9019C7.60786 23.2882 7.88252 23.454 8.31346 23.4459C9.32372 23.4282 10.3356 23.454 11.3474 23.4315C11.6568 23.425 11.8146 23.5361 11.9583 23.8016C12.4476 24.703 12.9717 25.5834 13.4626 26.4847C13.6647 26.8565 13.9362 27.0094 14.3529 27.003C15.5479 26.9853 16.7428 26.9837 17.9378 27.003C18.3608 27.0094 18.6197 26.8404 18.8202 26.4734C19.3253 25.5512 19.862 24.6466 20.3687 23.7244C20.4887 23.5071 20.6244 23.4331 20.8644 23.4363C21.9141 23.4492 22.9654 23.4363 24.0167 23.4443C24.3955 23.4475 24.6576 23.3091 24.8486 22.9615C25.4516 21.8654 26.0719 20.7774 26.6939 19.6926C26.8707 19.3835 26.8833 19.1051 26.7034 18.7912C26.0735 17.6951 25.4516 16.5926 24.8391 15.4869C24.6576 15.1586 24.4098 15.0185 24.0404 15.0217C22.8186 15.033 21.5984 15.0362 20.3766 15.0217C19.9725 15.0169 19.7168 15.173 19.521 15.5287C19.0096 16.4639 18.4713 17.3829 17.9567 18.3148C17.8462 18.516 17.7184 18.5933 17.491 18.59C16.5976 18.5772 15.7057 18.5772 14.8123 18.59C14.5739 18.5933 14.435 18.5192 14.315 18.3019C13.8146 17.3926 13.2779 16.5025 12.7902 15.5867C12.566 15.165 12.2708 14.9976 11.8083 15.0217C11.2448 15.0507 10.6797 15.0282 10.1146 15.0282L10.1161 15.0266Z" fill="white"/>
<path d="M16.1096 5.4241C12.973 5.4241 9.83492 5.42732 6.69837 5.42249C5.3361 5.42088 4.34636 4.74811 3.97856 3.60052C3.40871 1.8204 4.64313 0.0129155 6.46949 0.00808699C12.9004 -0.00478912 19.3329 -0.00317961 25.7655 0.00808699C27.2808 0.0096965 28.3858 1.10738 28.4332 2.59618C28.4837 4.15741 27.4687 5.32431 25.9138 5.39835C24.7094 5.45629 23.5003 5.42249 22.2927 5.4241C20.2311 5.42732 18.1711 5.4241 16.1096 5.4241Z" fill="white"/>
<path d="M22.2028 16.3447C22.7505 16.3447 23.3977 16.1612 23.8176 16.3978C24.2217 16.6263 24.3922 17.2879 24.6621 17.7594C24.8926 18.1634 25.1388 18.5594 25.3409 18.9778C25.4072 19.1147 25.4198 19.3448 25.3504 19.4736C24.9115 20.2944 24.4522 21.104 23.9755 21.9007C23.8997 22.0279 23.7008 22.1454 23.5556 22.1486C22.6511 22.1711 21.7466 22.1727 20.8421 22.1486C20.6874 22.1438 20.4774 22.0118 20.3953 21.875C19.9234 21.0895 19.4861 20.2832 19.0236 19.4913C18.9178 19.3094 18.9005 19.1758 19.0125 18.9843C19.4829 18.1827 19.9265 17.3635 20.4048 16.5668C20.4806 16.4413 20.6779 16.3318 20.8263 16.3222C21.2825 16.29 21.7434 16.3109 22.2028 16.3109C22.2028 16.3221 22.2028 16.3334 22.2028 16.3463V16.3447Z" fill="white"/>
<path d="M10.0768 16.3094C10.5488 16.3094 11.0223 16.2949 11.4927 16.319C11.6206 16.3255 11.7942 16.4204 11.8574 16.5283C12.3436 17.3523 12.8155 18.1861 13.2717 19.0278C13.3301 19.1357 13.3207 19.3385 13.2591 19.4511C12.8092 20.2816 12.3467 21.1041 11.8668 21.9153C11.7974 22.0344 11.6111 22.1471 11.4754 22.1487C10.544 22.1696 9.61269 22.168 8.68293 22.1487C8.55981 22.1471 8.38933 22.0392 8.32461 21.9298C7.83684 21.1073 7.36486 20.2736 6.90709 19.4334C6.84868 19.3256 6.85657 19.1228 6.91656 19.0117C7.36802 18.1828 7.83211 17.3604 8.31356 16.5492C8.38301 16.4317 8.56454 16.3271 8.70188 16.3174C9.15965 16.2884 9.619 16.3061 10.0784 16.3061L10.0768 16.3094Z" fill="white"/>
<path d="M16.1349 25.6782C15.5871 25.6782 14.9415 25.8617 14.52 25.6251C14.1144 25.3982 13.9407 24.7399 13.6676 24.2683C13.4356 23.8659 13.213 23.4555 12.9747 23.0579C12.8705 22.8841 12.8421 22.7505 12.9573 22.5542C13.4309 21.7542 13.8871 20.943 14.3354 20.127C14.4474 19.9226 14.5816 19.8582 14.8042 19.8614C15.6961 19.8727 16.5879 19.8743 17.4782 19.8614C17.7039 19.8582 17.8334 19.9307 17.9439 20.1318C18.3906 20.9479 18.8626 21.7494 19.303 22.5703C19.3677 22.6894 19.3661 22.9066 19.303 23.0257C18.8626 23.845 18.4048 24.6562 17.9281 25.4545C17.8523 25.5817 17.6582 25.6927 17.5098 25.704C17.0536 25.7362 16.5927 25.7152 16.1333 25.7152C16.1333 25.7024 16.1333 25.6911 16.1333 25.6782H16.1349Z" fill="white"/>
</g>
<defs>
<clipPath id="clip0_173_138">
<rect width="30.8571" height="36" fill="white" transform="translate(0.714355)"/>
</clipPath>
</defs>
</svg>
