<svg width="27" height="32" viewBox="0 0 27 32" fill="none" xmlns="http://www.w3.org/2000/svg">
<g clip-path="url(#clip0_173_56)">
<path d="M20.2326 12.9278C20.1878 13.5643 20.1377 14.2561 20.0902 14.9478C20.0111 16.0683 19.932 17.1915 19.8608 18.312C19.8529 18.4198 19.8924 18.5355 19.9267 18.6407C20.288 19.7165 20.6282 20.7976 21.0212 21.8602C21.2796 22.5599 21.3034 23.2858 21.3693 24.0091C21.5592 26.1134 21.7438 28.2202 21.9126 30.3245C21.9811 31.1819 21.3877 31.8895 20.5597 31.9894C19.7421 32.0894 19.001 31.5239 18.8586 30.6795C18.8085 30.3823 18.7953 30.0798 18.769 29.78C18.5791 27.6126 18.3918 25.4453 18.1993 23.2779C18.1888 23.1648 18.1519 23.0544 18.1176 22.9465C17.6323 21.5078 17.1471 20.069 16.6592 18.6302C16.5344 18.262 16.253 18.0805 15.8153 18.0858C15.8153 18.1857 15.81 18.283 15.8153 18.383C15.8944 19.9743 15.963 21.5656 16.0579 23.1569C16.0895 23.6698 16.0078 24.1354 15.7863 24.6062C14.7815 26.7315 13.8004 28.8699 12.8088 31.0004C12.4633 31.7422 11.7803 32.1209 11.0709 31.971C10.0555 31.758 9.53601 30.7374 9.97643 29.7747C10.6094 28.3833 11.2608 26.9998 11.9069 25.611C12.1706 25.0455 12.4132 24.4694 12.7007 23.9171C12.9011 23.5331 12.9671 23.1464 12.9407 22.7203C12.8537 21.2552 12.7508 19.7875 12.7218 18.3225C12.7033 17.3256 12.7904 16.3261 12.8431 15.3292C12.8853 14.5401 12.9644 13.7511 12.9961 12.9593C13.0224 12.2991 13.2281 11.7573 13.7846 11.3496C14.2461 11.0103 14.6654 10.6158 15.0768 10.2028C14.6311 10.4369 14.2039 10.7157 13.7398 10.8998C12.8853 11.2339 12.3895 11.8152 12.0941 12.6884C11.7196 13.7879 11.2159 14.8452 10.7544 15.9158C10.525 16.4471 10.045 16.7259 9.48063 16.6917C8.9611 16.6601 8.48112 16.3156 8.36508 15.7948C8.30179 15.516 8.29915 15.1767 8.40464 14.9163C9.05076 13.3039 9.72062 11.7021 10.4221 10.1107C10.5408 9.83982 10.8124 9.58995 11.0762 9.43739C11.986 8.91133 12.9249 8.43525 13.8373 7.89342C13.6949 7.92761 13.5552 7.9618 13.36 8.00915C13.3811 7.88816 13.389 7.79347 13.4154 7.70404C13.6475 6.92284 14.3753 6.34418 15.1876 6.37574C16.406 6.42309 17.627 6.49411 18.8428 6.6151C19.8819 6.71768 20.5755 7.54885 20.5148 8.5957C20.4911 9.00865 20.5966 9.30062 20.8761 9.58995C21.2823 10.0082 21.6383 10.4737 22.0365 10.8998C22.1552 11.0261 22.3292 11.1366 22.4954 11.1786C23.6637 11.4864 24.8399 11.7678 26.0108 12.0703C26.6147 12.2255 26.9866 12.6989 27.0024 13.2829C27.0182 13.8484 26.6807 14.3744 26.14 14.5217C25.8816 14.5927 25.5757 14.598 25.3146 14.5375C23.9749 14.2219 22.6378 13.8983 21.3139 13.5275C20.9341 13.4196 20.6045 13.1408 20.2379 12.9304L20.2326 12.9278Z" fill="white"/>
<path d="M2.53428 31.2187C2.29429 31.8867 1.81432 32.1498 1.3106 31.9157C0.801618 31.6816 0.693491 31.1555 1.05216 30.5295C0.907107 30.4585 0.762059 30.3901 0.619649 30.3165C0.0790156 30.0403 -0.147786 29.4695 0.105388 28.9172C1.30797 26.3 2.51582 23.6855 3.73422 21.0763C3.99003 20.5292 4.57814 20.3319 5.13723 20.5713C5.58556 20.7633 6.02598 20.9763 6.50068 21.1947C7.11252 19.8743 7.71908 18.567 8.30719 17.2939C8.70805 17.4386 9.08517 17.5754 9.48603 17.7201C9.44647 17.8147 9.399 17.9384 9.34362 18.0567C8.81617 19.1983 8.28872 20.3424 7.756 21.4814C7.67689 21.6497 7.67161 21.7602 7.81666 21.9127C8.17269 22.2915 8.16214 22.7255 7.94852 23.1858C7.09142 25.0243 6.24487 26.8655 5.39568 28.7067C5.08712 29.3775 4.77593 30.0482 4.46737 30.7163C4.11398 31.4817 3.58654 31.6763 2.81646 31.3291C2.73207 31.2923 2.64504 31.2607 2.53956 31.216L2.53428 31.2187Z" fill="white"/>
<path d="M14.8716 2.80129C14.8795 1.23627 16.1375 -0.00785351 17.704 3.73283e-05C19.2573 0.00792817 20.5258 1.29151 20.5074 2.83811C20.4889 4.38209 19.223 5.62621 17.6829 5.62358C16.1164 5.61832 14.8637 4.36104 14.8742 2.80129H14.8716Z" fill="white"/>
</g>
<defs>
<clipPath id="clip0_173_56">
<rect width="27" height="32" fill="white"/>
</clipPath>
</defs>
</svg>
