<svg width="19" height="21" viewBox="0 0 19 21" fill="none" xmlns="http://www.w3.org/2000/svg">
<path d="M9.5369 20.9037C7.25824 20.8849 5.1908 20.2114 3.36564 18.8356C2.29465 18.029 1.3976 17.0465 0.700581 15.8856C0.596215 15.7109 0.546517 15.5363 0.637216 15.3428C1.54545 13.4041 3.02521 12.1678 5.08644 11.6502C5.2318 11.6137 5.3809 11.5949 5.52751 11.5622C5.8493 11.4906 6.12513 11.5836 6.39101 11.772C7.41852 12.5045 8.56779 12.8312 9.82142 12.7772C10.7781 12.7357 11.7012 12.5045 12.4728 11.9329C13.0568 11.5007 13.6159 11.5195 14.2421 11.6967C15.9865 12.1892 17.301 13.2421 18.2303 14.8038C18.6316 15.4772 18.6466 15.4948 18.2154 16.1494C17.1668 17.7413 15.8088 18.9864 14.1054 19.8332C12.6641 20.5507 11.1372 20.8924 9.53814 20.9037H9.5369Z" fill="white"/>
<path d="M9.5631 11.1576C6.70794 11.1563 4.34728 8.76537 4.35598 5.88314C4.36468 2.99714 6.70422 0.6313 9.55813 0.625018C12.4133 0.617479 14.7715 2.99714 14.7739 5.88816C14.7764 8.77542 12.4195 11.1601 9.5631 11.1588V11.1576Z" fill="white"/>
</svg>
