<svg width="43" height="44" viewBox="0 0 43 44" fill="none" xmlns="http://www.w3.org/2000/svg">
<g clip-path="url(#clip0_173_3475)">
<path opacity="0.8" d="M26.7908 33.3351L26.7427 33.3168L26.6857 33.3473L26.6602 33.3977L26.6872 33.4252L26.7473 33.4374H26.8208L26.8463 33.4603L26.8688 33.4358L26.8298 33.3824L26.7893 33.3366L26.7908 33.3351ZM16.5664 22.7618L16.4764 22.7877L16.4088 22.8183L16.3413 22.8717L16.2813 22.945L16.2738 23.0106L16.3608 23.0411L16.4764 22.9969L16.5199 22.9923L16.5289 22.977L16.5424 22.9434L16.5649 22.9099L16.6069 22.8931L16.5889 22.8747L16.5574 22.8183L16.7555 22.7664V22.7435H16.6669L16.5694 22.7618H16.5664ZM19.859 28.0698L19.85 28.0561L19.8124 28.0637L19.8049 28.0683L19.7059 28.0881L19.6609 28.1125L19.6534 28.1309V28.1782L19.6474 28.2087L19.6068 28.3141L19.6339 28.3751L19.6744 28.3461L19.7494 28.2393L19.8124 28.2194L19.8635 28.2164L19.889 28.1935L19.874 28.1156L19.859 28.0713V28.0698ZM25.7988 32.9275L25.7778 32.9015L25.7478 32.8832L25.7073 32.8481L25.5407 32.6191L25.4852 32.5855L25.3936 32.6176L25.4401 32.6909L25.5962 32.8084L25.6247 32.8954L25.6322 32.9824L25.6652 33.0435L25.7673 33.0588L25.8048 33.0801L25.8213 33.0649L25.8243 33.0282L25.8168 32.984L25.7988 32.9244V32.9275ZM29.9828 31.0726L30.0053 30.978L29.9888 30.8849L29.8988 30.9872L29.8717 31.0406L29.8912 31.0864L29.9378 31.1246L29.9813 31.0742L29.9828 31.0726ZM32.6451 35.7838L32.588 35.7777L32.5385 35.7578L32.5175 35.7212L32.4905 35.6006L32.483 35.5807L32.423 35.5685L32.2744 35.5059L32.1273 35.4693L32.0193 35.4556L31.9232 35.4647L31.8812 35.5197L31.8692 35.5868L31.8362 35.6464L31.7897 35.6968L31.7341 35.7319L31.6606 35.7548L31.5796 35.7639L31.515 35.7395L31.488 35.6693L31.494 35.6235L31.503 35.5929V35.5655L31.488 35.5319L31.458 35.4998H31.4355L31.4085 35.5136L31.365 35.5304L31.2179 35.5609L31.1263 35.5655L30.9823 35.5105L30.9027 35.5181H30.8247L30.7497 35.454L30.9042 35.309L30.9898 35.2067V35.1869L30.9357 35.1792H30.8142L30.7527 35.1563L30.7587 35.1044L30.8112 35.0541L30.8877 35.0312L30.9388 35.0052L30.9417 34.9563L30.8997 34.9258L30.8247 34.9563L30.7707 34.9319L30.7061 34.938L30.5786 34.9792L30.517 34.9854L30.4225 34.9777H30.3595L30.2934 35.0205L30.2619 35.0312H30.2289L29.9288 34.9396L29.8672 34.9289L29.8072 34.9441L29.7592 34.9823L29.7157 35.0235L29.6691 35.0525L29.1814 35.1518L29.0013 35.2296L28.9323 35.251L27.9673 35.3838L27.9328 35.3975L27.8788 35.4296L27.8353 35.4418L27.7287 35.451L27.5591 35.5197L27.307 35.5395L27.223 35.5624L27.166 35.6021L27.1569 35.6357L27.169 35.7059L27.1524 35.741L27.1299 35.7639L27.1104 35.7929L27.0954 35.825L27.0789 35.9151L27.0579 35.941L27.0324 35.9563L27.0159 35.9731L27.0069 36.0173V36.0891L26.9889 36.1257L27.199 36.2891L27.25 36.312L27.3851 36.3318L27.4346 36.3517L27.5366 36.4723L27.5847 36.5425L27.6057 36.5868L27.6147 36.6524L27.6447 36.6738L27.6912 36.6677L27.7542 36.6494L27.7978 36.6463L27.8218 36.6539L27.8458 36.6494L27.8878 36.6112L27.9163 36.5975L27.9568 36.5944L28.0349 36.5975L28.0664 36.5898L28.1294 36.5547L28.1699 36.5471L28.1969 36.5547L28.2675 36.5959L28.3785 36.6219L28.4911 36.6097L28.7342 36.5211L28.7717 36.5623L28.8212 36.5669L28.9293 36.544L28.9923 36.5517L29.1079 36.5852L29.1634 36.5929L29.276 36.5608L29.312 36.4906L29.336 36.4143L29.42 36.3669H29.4786L29.5341 36.3776L29.7022 36.4356L29.8747 36.4448L29.9918 36.4799L30.1524 36.6433L30.2574 36.6936L30.3085 36.7425L30.43 36.6967L30.6491 36.5685L30.8217 36.5349L30.8457 36.5059L30.8532 36.4906L30.8697 36.4677L30.8877 36.4402L30.8952 36.4051L30.8892 36.3761L30.8742 36.3563L30.8577 36.3379L30.8472 36.3181L30.8412 36.2356L30.8637 36.1639L30.9192 36.1135L31.0798 36.083L31.3785 35.9715L31.524 35.9471L31.6126 35.9441L31.6951 35.9532L31.8002 35.9899L31.8557 35.9929L31.9382 35.9838H32.0088L32.0733 36.0036L32.1903 36.0891L32.2639 36.1227L32.3464 36.1441L32.4215 36.141L32.465 36.1089L32.5625 35.9914L32.606 35.9654L32.7036 35.9425L32.7111 35.8861L32.6946 35.8219L32.7171 35.7685H32.6466L32.6451 35.7838ZM0 0V20.739L0.333159 20.6947L0.442711 20.6993L0.495236 20.6947L0.717342 20.6169L0.792378 20.6108L1.02649 20.6169L1.10453 20.6108L1.30862 20.5696H1.61627L1.6868 20.5589L1.92242 20.4917L2.69679 20.4673L3.37961 20.3711L3.86434 20.3894L4.07144 20.3253L4.14498 20.3146L4.54116 20.3177L4.70024 20.3574H5.54664L6.0809 20.4291L6.41556 20.4383L6.57163 20.4154L7.14491 20.2429L7.49908 20.0169L7.65215 19.9543L7.80372 19.965L8.40551 20.1589L9.08833 20.4306L9.97375 20.8764L10.475 21.2275L11.0303 21.5329L11.1353 21.6229L11.3304 21.8382L11.449 21.9328L11.5885 21.9878L11.7476 22.0061L11.9202 21.9878L12.0943 21.9221L12.1753 21.9145L12.2548 21.9176L12.3329 21.9374L12.4079 21.9725L12.4409 21.9786L12.483 21.9634L12.4364 21.9038L12.3914 21.858L12.3749 21.8092L12.4109 21.7389L12.4574 21.7038L12.5235 21.6748L12.6015 21.6535L12.7711 21.6275H12.8566L13.1133 21.6825L13.2768 21.6931L13.4494 21.684L13.5335 21.6886L13.6115 21.7084L13.7766 21.8336L13.8651 21.9237L14.1007 22.0916L14.1683 22.1114L14.2148 22.1328L14.2328 22.1801L14.2388 22.232L14.2508 22.2626L14.2913 22.2717L14.3213 22.2549L14.3468 22.229L14.3724 22.2137L14.4564 22.2198L14.5344 22.2595L14.8166 22.5099L14.8466 22.548L14.8571 22.5694L14.8646 22.5801L14.8901 22.5832L14.9156 22.5771L14.9831 22.5435L15.0252 22.5358L15.0597 22.5435L15.1377 22.5771L15.2113 22.5969L15.2743 22.6503L15.3058 22.661L15.3358 22.6458L15.4289 22.5587L15.5024 22.5908L15.6119 22.6137L15.8085 22.6335L15.8431 22.6213L15.8641 22.5969L15.8791 22.571L15.8956 22.5587L15.9406 22.5633L15.9961 22.6015L16.0291 22.6106L16.1027 22.5908L16.0907 22.545L16.0261 22.4946L15.9451 22.4595L15.8611 22.4503L15.831 22.4351L15.819 22.3969L15.8325 22.3496L15.8656 22.3374H15.9061L15.9451 22.3343L16.0396 22.2702L16.0757 22.2809L16.0892 22.3694L16.1102 22.3908L16.1567 22.4183L16.3098 22.49H16.3428L16.3833 22.458L16.4088 22.3893L16.4148 22.3068L16.4313 22.2381L16.4914 22.2107L16.5649 22.2168L16.6564 22.2336L16.7345 22.2656L16.775 22.3114L16.7615 22.3374L16.7285 22.3618L16.703 22.3878L16.7135 22.4213L16.7465 22.4397L16.7825 22.4458L16.8125 22.458L16.8245 22.4977L16.8185 22.5404L16.811 22.5526L16.817 22.5587L16.853 22.5832L16.8846 22.5984L16.9656 22.6198L17.0361 22.6488L17.0586 22.6519L17.0691 22.6671L17.0751 22.7664L17.0886 22.8015L17.1157 22.8244L17.1592 22.8335L17.1817 22.8198L17.2087 22.7908L17.2447 22.7633L17.2942 22.7572L17.3153 22.7725L17.3693 22.858L17.5404 23.0045L17.5659 23.0457L17.5899 23.1114L17.7009 23.2304L17.737 23.2808L17.725 23.351L17.6649 23.3923L17.5974 23.4014L17.5659 23.3709L17.5449 23.3159L17.4983 23.3572L17.4488 23.4381L17.4173 23.5068L17.4128 23.5342L17.4173 23.6426L17.4218 23.664L17.4338 23.7037L17.4293 23.7174L17.4203 23.7312L17.3978 23.777L17.3933 23.7922L17.4038 23.8335L17.4308 23.8533L17.4698 23.8594L17.5133 23.8548L17.5629 23.8396L17.5824 23.8167L17.5944 23.7892L17.6154 23.7541L17.6904 23.6854L17.746 23.6747L17.8075 23.6915L17.8975 23.7037L17.9396 23.6762L17.9816 23.6167L18.0326 23.5571L18.1076 23.5312L18.1452 23.5403L18.2157 23.5739L18.2427 23.5678L18.2787 23.5342L18.3087 23.5144L18.3417 23.5068H18.3883L18.4498 23.5251L18.6194 23.6671L18.7424 23.7678L18.8295 23.8793L18.8985 24.0014L18.9825 24.2655L18.9856 24.3311L18.936 24.4166L18.909 24.493L18.8925 24.5265L18.867 24.5525L18.7965 24.6013L18.7529 24.6594L18.7304 24.7006L18.7109 24.7891L18.6869 24.7967L18.6359 24.7769L18.6269 24.7571L18.6209 24.7128V24.6624L18.6239 24.6288L18.6389 24.5891L18.6539 24.5617L18.6974 24.5052L18.6134 24.4884L18.3402 24.4777L18.2322 24.4563L18.1857 24.4609L18.1587 24.5052L18.1692 24.5311L18.3087 24.699L18.3658 24.7998L18.3958 24.9051L18.3643 24.9906L18.3327 25.0166L18.2322 25.0761L18.2037 25.1051L18.1632 25.1616L18.1346 25.1784L18.1662 25.2456L18.2157 25.27L18.3522 25.2776L18.4168 25.3204L18.4528 25.328L18.4648 25.3189L18.4828 25.299L18.5083 25.2822L18.5473 25.2792L18.6029 25.3097L18.6524 25.3677L18.6794 25.4379L18.6719 25.5066L18.6314 25.5478L18.5113 25.5738L18.4528 25.6074L18.4948 25.6532L18.5323 25.6639L18.6359 25.6517L18.7139 25.6578L18.7574 25.6791L18.7875 25.7188L18.87 25.8974L18.8865 25.9646L18.8925 26.0425L18.918 26.1005L19.1146 26.2562L19.1611 26.2302L19.1821 26.1936L19.1896 26.1463V26.0928L19.2077 26.0684L19.2452 26.0944L19.2767 26.1341V26.1554L19.3622 26.1356L19.4358 26.0959L19.5198 26.0669L19.6324 26.0791L19.862 26.2089L20.0331 26.2425L20.0871 26.2806L20.1726 26.4043L20.2026 26.3722L20.2296 26.3478L20.2597 26.334L20.2957 26.3279L20.2702 26.2959L20.2371 26.2776L20.2101 26.2562L20.1981 26.2134L20.1816 26.1814L20.1396 26.1707L20.0391 26.1768L19.9805 26.1493L19.967 26.0913L20.006 26.0379L20.1006 26.0287L20.3242 26.0959L20.4067 26.1051L20.4533 26.1371L20.4998 26.2089L20.5343 26.2852L20.5403 26.3295L20.4893 26.3402H20.4037L20.3467 26.3585L20.3812 26.4195L20.4172 26.444L20.5013 26.4806L20.5403 26.505L20.6634 26.6317L20.7849 26.7325L20.8389 26.7936L20.875 26.9401L20.983 27.1798L21.0085 27.2561L21.022 27.3294L21.0325 27.4927L21.013 27.5676L20.9785 27.6362L20.9575 27.7049L20.983 27.7782L20.935 27.8088L20.968 27.8347L21.0836 27.879L21.1061 27.9019L21.1691 27.9904L21.1946 28.0118L21.2786 28.0668L21.3117 28.1003L21.5248 28.2286L21.7379 28.4041L22.0035 28.6774L22.0605 28.714L22.1416 28.7278L22.1881 28.7629L22.2886 28.9781L22.3892 29.0819L22.4372 29.1461L22.4567 29.2178V29.3796L22.4657 29.4178L22.4762 29.4514L22.4792 29.4865L22.4567 29.5292L22.4852 29.575L22.4582 29.6147L22.3982 29.6437L22.3336 29.6514L22.3562 29.6956L22.3847 29.7338L22.4552 29.8025L22.5843 29.8071L22.6818 29.9582L22.7463 30.1567L22.7989 30.6391L22.8154 30.6895L22.8964 30.7979L22.9219 30.8757V30.9139L22.9204 30.9566L22.9084 30.9902L22.8574 31.0207V31.0589L22.8664 31.0971L22.8739 31.1139L22.8769 31.1475L22.8859 31.1887L22.9009 31.2268L22.9234 31.2513L22.9564 31.2665L22.9624 31.2558L22.9669 31.2299L22.997 31.1994L23.006 31.1841L23.039 31.1505L23.075 31.1383L23.0915 31.1856L23.0885 31.2238L23.0735 31.294L23.069 31.3352L23.2281 31.3566L23.3076 31.3795L23.2866 31.4238L23.0645 31.4558L22.991 31.4894L22.9549 31.497L22.9039 31.4803L22.8304 31.439L22.7614 31.3887L22.7223 31.3474L22.7749 31.3077L22.7508 31.2833L22.6458 31.2482L22.5978 31.2024L22.5858 31.1551L22.6083 31.1108L22.6728 31.0711L22.6263 31.0559L22.3697 31.0055L22.3066 30.9856L22.2676 30.9414L22.2541 30.8589L22.2826 30.7765L22.2856 30.7368L22.2556 30.72L22.2226 30.7353L22.2061 30.7704L22.1971 30.8116L22.1851 30.8482L22.1386 30.8971L22.0905 30.9322L22.053 30.9795L22.038 31.062L22.0095 31.1215L21.8984 31.2574L21.8924 31.3215L21.9405 31.3535L22.0035 31.3245L22.0695 31.2757L22.1265 31.2497L22.2001 31.239L22.2646 31.2192L22.3291 31.21L22.4042 31.2284L22.5347 31.3108L22.6623 31.4146L22.7223 31.4772L22.7298 31.5261L22.6488 31.6528L22.6938 31.668L22.7929 31.6497L22.8349 31.665L22.8784 31.6909L23.042 31.7505L23.1425 31.8192L23.2101 31.8863L23.3391 32.0527L23.6678 32.3626L23.7323 32.4756V32.5153L23.7308 32.5657L23.7383 32.6099L23.7713 32.6283H23.9439L23.9769 32.6115V32.5748L23.9604 32.5321L23.9544 32.5016L23.9754 32.497L23.9919 32.4909L24.0024 32.4771L24.025 32.4023L24.16 32.2939L24.3086 32.2817L24.4497 32.3428L24.5652 32.4558L24.5787 32.4924L24.5832 32.5245L24.5982 32.5458L24.6508 32.555L24.7363 32.5977L24.7723 32.6054L24.8248 32.6405L24.8879 32.7962L24.9584 32.8313L25.0034 32.7931L25.095 32.7702L25.128 32.7305L25.0845 32.6802L25.0785 32.6664V32.6099V32.6054L24.9734 32.355L24.9824 32.3031L25.0214 32.2588L25.0785 32.2054L25.1265 32.1428L25.1475 32.0802L25.152 31.9199L25.1415 31.8711L25.1145 31.8451L25.0815 31.839L25.0499 31.8573L25.0409 31.8894L25.0469 31.9718L25.0274 32.0069L24.9854 32.0253L24.9614 32.0054L24.9359 31.9749L24.8924 31.9581L24.8744 31.9688L24.7423 32.0909L24.6778 32.1245L24.6072 32.1474L24.5367 32.1581H24.4331L24.3851 32.1398L24.3656 32.097L24.3806 32.0756L24.4482 32.0344L24.4647 31.9978L24.5037 31.9581L24.5877 31.9672L24.6658 31.9642L24.6868 31.8863L24.6673 31.8451L24.6012 31.784L24.5877 31.752L24.5922 31.7108L24.6102 31.639L24.6132 31.6009L24.6357 31.5108L24.6928 31.465L24.7663 31.4741L24.8353 31.5428L24.8834 31.4879L24.8699 31.4253L24.7858 31.3154L24.8143 31.2757L24.8368 31.1673L24.8594 31.1139L24.9119 31.0635L24.9644 31.0452L25.0544 31.0375L25.2405 30.9383L25.3351 30.9215L25.3756 31.004L25.3981 31.1062L25.4491 31.1154L25.5017 31.0497L25.5242 30.9291L25.5332 30.8177L25.5242 30.778L25.4867 30.7276L25.4836 30.6895L25.5182 30.6574L25.5407 30.6192L25.4987 30.5673L25.5827 30.462L25.8018 30.375L25.9204 30.2941L26.1395 29.9292L26.228 29.8437L26.2625 29.7414L26.285 29.7079L26.3376 29.6529L26.3586 29.6193L26.3676 29.5812L26.3706 29.5063L26.3856 29.4682L26.4126 29.4346L26.6347 29.2651L26.7052 29.2316L26.8568 29.2025L26.9198 29.1598L27.0234 29.0667L27.172 28.9797L27.175 28.9049L27.184 28.882L27.2065 28.8545L27.2635 28.8133L27.4886 28.7415L27.5801 28.6988L27.5997 28.6942L27.6357 28.6789L27.6852 28.6087L27.7227 28.5919L27.8158 28.5782L27.8743 28.5446L27.9208 28.5034L27.9838 28.4683L28.0679 28.4545H28.1549L28.239 28.4469L28.3125 28.4041L28.359 28.369L28.5466 28.2667L28.4806 28.2591L28.2765 28.3293L28.2675 28.311L28.254 28.2713V28.2332L28.287 28.2148L28.3155 28.2072L28.353 28.1889L28.386 28.1614L28.401 28.1293L28.4235 28.0454L28.4776 28.0072L28.5481 28.0164L28.6186 28.0668L28.6367 28.0988L28.6397 28.1217L28.6502 28.1431L28.6922 28.169L28.7192 28.1797L28.7447 28.1828L28.9728 28.1339L29.1469 28.1171L29.2279 28.0942L29.333 27.9919L29.3945 27.969L29.4786 27.9034L29.5746 27.7553L29.7682 27.3431L29.8072 27.2775L29.9603 27.0943L29.9978 27.0287L30.0233 26.9432L30.0458 26.6577L30.0653 26.5936L30.2304 26.3325L30.2514 26.2699L30.2634 26.1982L30.2679 26.1096L30.2934 26.0348L30.355 25.9906L30.4345 25.96L30.5095 25.9203L30.7887 25.6501L30.8052 25.6242L30.8097 25.5952L30.8037 25.5204V25.4975L30.8562 25.4425L30.9372 25.383L31.0243 25.3479L31.0873 25.3616L31.1984 25.4517L31.2674 25.4883L31.2989 25.4944L31.3454 25.499L31.431 25.4914L31.461 25.4624L31.4505 25.4181L31.3905 25.3372L31.374 25.3005L31.3665 25.2608L31.3695 25.2257L31.395 25.183L31.4145 25.1906L31.437 25.2089L31.467 25.2013L31.491 25.1662L31.5225 25.0807L31.5525 25.038L31.5676 25.0089L31.5721 24.9693L31.563 24.725L31.5405 24.5769L31.527 24.5311L31.503 24.4823L31.4685 24.4426L31.374 24.4105L31.371 24.3708L31.3965 24.2899L31.4025 24.1342L31.3965 24.0457L31.3695 23.977L31.3875 23.9235L31.3965 23.8518L31.4115 23.7922L31.446 23.777L31.464 23.7983L31.479 23.8731L31.4925 23.9022L31.518 23.9144H31.5495L31.5841 23.9235L31.6171 23.9541L31.56 23.9983L31.554 24.0487L31.5781 24.1021L31.6171 24.1525L31.6951 24.2182L31.7146 24.2517V24.2838L31.6996 24.3479L31.7026 24.3662L31.7116 24.3815V24.412L31.7161 24.4273L31.7251 24.4304L31.7626 24.4334L31.8017 24.4533L31.8287 24.4609L31.8527 24.4701L31.8617 24.4899L31.8872 24.5128L32.0358 24.6258L31.9457 24.6716L31.9067 24.7021V24.7525L32.1048 25.5448L32.1168 25.5616L32.1453 25.5906L32.1783 25.6043L32.2594 25.6013L32.2939 25.615L32.3314 25.6608L32.3614 25.7112L32.3854 25.7677L32.4019 25.8242L32.4064 25.8516L32.4019 25.9356L32.408 25.9661L32.4155 25.9829V25.9997L32.3914 26.0348L32.3479 26.0684L32.3104 26.0593L32.2714 26.0348L32.2309 26.0211L32.2174 26.0287L32.1768 26.0623L32.1603 26.073L32.1393 26.0699L32.1063 26.0501H32.0868L31.8797 26.1799L31.7401 26.2211L31.6891 26.2776L31.6516 26.3508L31.6216 26.4272L31.6096 26.5172L31.6456 26.6058L31.7116 26.6806L31.8347 26.7798L31.8422 26.8073V26.8745L31.8182 26.9752L31.8257 27.0271L31.9202 27.0668L31.9562 27.1096L31.9802 27.163L31.9998 27.2699L32.0493 27.3599L32.0613 27.4118V27.6118L32.0523 27.6408L32.0193 27.7248L32.0103 27.7736L31.8917 27.7202L31.7671 27.8088L31.5435 28.0729H31.5225L31.458 28.0545L31.3695 28.1736L31.2374 28.3965L31.1969 28.4179L31.0168 28.5598L30.9357 28.653L30.8862 28.6942L30.8307 28.7217L30.8592 28.7507L30.8892 28.7751L30.9132 28.8041L30.9282 28.8453L30.9237 28.8789L30.9057 28.9217L30.8787 28.9583L30.7902 28.9965L30.7226 29.0499L30.6551 29.1155L30.6116 29.1751L30.5801 29.2285L30.5906 29.2377L30.6131 29.2728L30.6521 29.3537L30.6596 29.3857V29.4346L30.6416 29.4896L30.5366 29.6743L30.49 29.7201L30.4465 29.714L30.361 29.6743L30.328 29.685L30.3069 29.7124L30.2949 29.7399L30.2994 29.7704L30.373 29.8758L30.406 29.9552L30.427 30.0391L30.4375 30.1216V30.2025L30.4075 30.4681L30.3805 30.5444L30.3595 30.5872L30.3475 30.6299L30.34 30.6452L30.3265 30.6498L30.2829 30.6437L30.2694 30.6467L30.2364 30.7017L30.1629 30.8635L30.1599 30.8986L30.2199 30.8696L30.2694 30.8223L30.322 30.807L30.3895 30.8757L30.4045 30.9398L30.397 31.0955L30.4465 31.1963L30.4645 31.3261L30.514 31.4268L30.391 31.7734L30.388 31.8176L30.394 31.9062L30.391 31.9505L30.376 31.9917L30.3175 32.0955L30.2964 32.2527L30.2994 32.3947L30.2754 32.5199L30.1734 32.6222L30.0788 32.6542L30.0173 32.6328L29.9573 32.5947L29.7802 32.5611L29.7412 32.5321L29.7067 32.4985L29.6331 32.4756L29.4786 32.4817L29.1769 32.5504L29.0163 32.5458L28.7852 32.4542L28.7462 32.4603L28.7267 32.5214L28.5736 32.6954L28.6066 32.7657L28.5886 32.8084L28.5031 32.8741L28.4656 32.929V32.9611L28.4926 32.9931L28.5241 33.0496L28.5421 33.1183L28.5361 33.1717L28.4596 33.3015L28.4386 33.3519L28.4251 33.3717L28.398 33.3916L28.3335 33.4236L28.302 33.4465L28.329 33.471L28.281 33.5076L28.1579 33.5656L28.1324 33.6114L28.1249 33.6465L28.0919 33.6999L28.0874 33.7228L28.1009 33.7549L28.1504 33.7915L28.1609 33.8099L28.2255 33.8969L28.368 33.903L28.5106 33.8572L28.6096 33.7534L28.8197 33.6511L28.8993 33.648L29.1169 33.6999L29.2835 33.7045L29.3645 33.6404L29.426 33.5427L29.5341 33.4496L29.6121 33.4267L29.8672 33.4496L29.9348 33.4267L30.0533 33.3183L30.1239 33.274L30.2034 33.2527L30.2709 33.2465L30.406 33.2496L30.439 33.2557L30.5035 33.2878L30.5441 33.3L30.6491 33.2954L30.6896 33.3L30.7647 33.3336L30.9012 33.4282L31.0858 33.4816L31.1323 33.474L31.1639 33.4511L31.2539 33.3504L31.3559 33.3076L31.365 33.3015L31.3695 33.2832L31.3755 33.1626L31.3544 33.0374L31.374 32.9977L31.452 32.9504L31.4235 32.8527L31.4535 32.7367L31.5465 32.5245L31.5931 32.3642L31.5991 32.3123L31.6141 32.2802L31.6816 32.2069L31.6966 32.1626L31.7101 32.1367L31.7746 32.0451L31.7972 32.0008L31.8092 31.9489L31.8287 31.6955L31.8557 31.6085L31.8947 31.5276L31.9412 31.4528L31.8437 31.3276L31.8632 31.2955L31.8677 31.2513V31.1505L31.8752 31.094L32.0028 30.7429L32.0133 30.6879L32.2579 30.4742L32.3959 30.2971L32.3899 30.2635L32.3674 30.2345L32.3434 30.2101L32.2969 30.1323L32.2939 30.0636L32.3194 30.0025L32.4515 29.833L32.489 29.7674L32.504 29.688L32.54 29.6422L32.6181 29.7002L32.8282 29.9475L32.8462 30.0147L32.8086 30.088L32.8161 30.1246L32.8762 30.1643L32.9947 30.2254L33.0713 30.3429L33.1898 30.7734L33.2589 30.9383L33.3129 31.0146L33.4389 31.0726L33.481 31.1352L33.5365 31.2742L33.58 31.3276L33.6851 31.3902L33.8126 31.4955L33.8291 31.5245L33.8366 31.5657V31.6009V31.6375L33.8561 31.6757L33.8892 31.694L33.9837 31.7215L34.0032 31.7367L34.0122 31.7764L34.0377 31.8131L34.0737 31.8375L34.1143 31.8466L34.1818 31.8756L34.2193 31.9428L34.2328 32.0253L34.2238 32.097L34.1773 32.0222L34.1128 31.9795L34.0542 31.9871L34.0287 32.0619L34.0017 32.3611L34.0167 32.5077L34.0842 32.8069L34.0993 32.9626L34.0767 33.0298L33.9657 33.158L33.9297 33.2267L33.9012 33.4313V33.5L33.9147 33.5351L33.9327 33.5687L33.9492 33.6053V33.6511L33.9327 33.6954L33.9072 33.7213L33.8787 33.7412L33.8561 33.7717L33.8396 33.848L33.8516 33.9961L33.8291 34.0709L33.7901 34.1076L33.7256 34.1488L33.652 34.1824L33.5965 34.1961L33.5365 34.2251L33.4765 34.2907L33.3879 34.4236L33.2874 34.5365L33.1823 34.6129L32.8297 34.7518L32.7561 34.793L32.6976 34.848L32.6736 34.9105L32.6571 35.0021L32.6346 35.0479L32.6436 35.0846L32.8251 35.2281L32.8912 35.2586L32.9797 35.2708L33.0533 35.2617L33.1313 35.2388L33.2063 35.2067L33.2634 35.1731V35.2006L33.8246 35.222L34.1623 35.1792L34.2974 35.1258L34.4294 35.0495L34.4894 34.996L34.515 34.9396L34.548 34.8922L34.6245 34.8617L34.9292 34.7899L35.0927 34.7762L35.1753 34.7915L35.3118 34.8556L35.3734 34.8739L35.4169 34.8693L35.4739 34.8357L35.5084 34.8266L35.549 34.8312L35.6195 34.8495L35.657 34.8525L35.741 34.8434L35.8161 34.8205L35.8386 34.7884L35.7651 34.7503L35.729 34.7548L35.69 34.7701L35.648 34.7793L35.606 34.7625L35.549 34.7029L35.5159 34.6831L35.4709 34.6755L35.2158 34.6724L35.1528 34.651L35.0987 34.5884L35.1348 34.5594L35.4124 34.5426L35.4469 34.5487L35.4739 34.5716L35.5099 34.6281L35.5429 34.6526L35.7455 34.6846L35.8191 34.7182L35.8626 34.7258L35.9466 34.7121L35.9721 34.6785L35.9481 34.6373L35.8866 34.6006L35.726 34.5579L35.6825 34.5167L35.6675 34.4144L35.6975 34.335L35.7711 34.2846L35.9361 34.2266L36.0037 34.2495L36.1042 34.2556L36.2018 34.2434L36.2648 34.2114L36.3293 34.1625L36.4959 34.0785L36.5469 34.0236L36.5139 34.016L36.4989 34.0068L36.4899 33.9931L36.4734 33.9747L36.6355 33.9869L36.7945 34.0312L36.9146 34.1243L36.9641 34.274L37.0482 34.1961L37.0947 34.1717L37.1352 34.1961L37.1397 34.2404L37.0887 34.3854L37.1082 34.4297L37.1487 34.4709L37.1802 34.5121L37.1712 34.5594L37.1277 34.6068L37.0887 34.619L36.8906 34.5762L36.8516 34.5732L36.8141 34.5793L36.799 34.5945L36.7885 34.6098L36.766 34.6235L36.6565 34.6464L36.616 34.6709L36.6295 34.709L36.679 34.7335L36.802 34.7579L36.8501 34.7838L37.1052 34.9823L37.1217 35.0357L37.0707 35.1075L37.0407 35.1792L37.0497 35.2556L37.0422 35.3243L36.9611 35.3716H36.8981L36.706 35.3502L36.6535 35.3319L36.637 35.2815L36.667 35.2449L36.712 35.2174L36.739 35.193L36.7495 35.1365L36.73 35.1289L36.697 35.135L36.664 35.1182L36.637 35.0602L36.649 35.0189L36.676 34.9686L36.691 34.8785L36.67 34.8128L36.6175 34.7838L36.5529 34.7671L36.4944 34.7426L36.3893 34.6526L36.3173 34.6342L36.2393 34.6816L36.1417 34.7701L36.1087 34.8281L36.1042 34.9197L36.0307 34.8938L35.9812 34.9105L35.9616 34.9563L35.9812 35.0189L36.0232 35.0479L36.1717 35.1212L36.2048 35.1548L36.4344 35.3182L36.5034 35.3365L37.1817 35.8433L37.2718 35.9441L37.3318 35.996L37.4744 36.0372L37.5374 36.086L37.9621 36.5456L37.9846 36.602L38.0206 36.7425L38.2187 37.1333L38.2412 37.2936H38.2157L37.9846 36.8677L37.8586 36.6433L37.6184 36.3807L37.4368 36.1975L37.0812 35.909L35.8371 34.9518L35.687 34.8831L35.5384 34.9197L35.72 35.0296L35.8296 35.0678L35.9466 35.1701L36.0577 35.2174L36.1883 35.3197L36.2993 35.367L36.4134 35.4708L36.5469 35.5395L36.8095 35.7532L37.4714 36.3105L37.5074 36.3547L37.5299 36.4066L37.6815 36.5914L37.8 36.6753L37.8676 36.7364L38.1092 37.2035L38.4483 37.8203L38.8955 38.7286L38.9076 38.7759L38.9301 39.2583L38.9076 39.4095L38.8535 39.5438L38.7575 39.6644L38.6479 39.7484L38.2442 39.9362L38.2562 39.9896L38.2953 40.0201L38.3883 40.0613L38.4483 40.1193L38.4723 40.1743L38.4859 40.3117L38.5354 40.4033L38.6089 40.4842L38.6599 40.5666L38.6344 40.6628L38.5729 40.7056L38.5129 40.7285L38.4934 40.7651L38.5954 40.9117L38.6854 41.0857L39.3773 41.8811L39.4958 41.9345V41.9223L39.4973 41.8979L39.5093 41.8719L39.5303 41.8612L39.5484 41.8643L39.5844 41.8795L39.6054 41.8841L39.6444 41.8963L39.7149 41.9482L39.754 41.9589L39.829 41.9925L39.892 42.0658L39.901 42.136L39.814 42.1604V42.1864L39.91 42.2765L40.1832 42.4474L40.2807 42.5329L40.4278 42.7711L40.4503 42.8337L40.6274 43.0794L40.6859 43.1924L40.6979 43.2458L40.7009 43.2947L40.7099 43.3207L40.7489 43.3603L40.7624 43.368L40.806 43.3771L40.821 43.3832L40.827 43.397L40.8405 43.4443L40.848 43.458L40.9125 43.4871L41.0581 43.5283L41.1286 43.571L41.4092 43.7832L41.4828 43.8168L41.5113 43.8351L41.5473 43.8718L41.5773 43.8885L41.6584 43.8855L41.6944 43.8977L41.7514 43.942L41.8174 43.9771L41.894 44L41.9765 44.0076L42.8289 43.9481L42.889 43.9664V42.1635L42.8874 40.3407V36.6982V33.0557V31.2345L42.8859 29.4132V29.1216L42.9595 29.1735L43.006 29.2377V0H0Z" fill="#9A9A9A"/>
<rect x="20.71" y="23.1535" width="17.92" height="18.1683" stroke="white"/>
</g>
<defs>
<clipPath id="clip0_173_3475">
<rect width="43" height="44" fill="white"/>
</clipPath>
</defs>
</svg>
