<svg width="32" height="19" viewBox="0 0 32 19" fill="none" xmlns="http://www.w3.org/2000/svg">
<g clip-path="url(#clip0_173_84)">
<path d="M9.74921 0C12.7074 0 15.6635 0 18.6217 0C19.3184 0 19.5118 0.181522 19.5118 0.835414C19.5118 5.68082 19.5118 10.5262 19.5118 15.3716C19.5118 16.0214 19.3184 16.2008 18.6173 16.2008C16.1074 16.2008 13.5976 16.2008 11.0877 16.2008C10.4393 16.2008 10.2877 16.0874 10.1646 15.4913C9.7536 13.4904 7.73602 12.4466 5.69866 12.8736C4.1514 13.1975 3.22833 14.1278 2.93822 15.5965C2.8547 16.0152 2.64811 16.1926 2.19976 16.2008C1.70965 16.2091 1.22173 16.2091 0.731624 16.2008C0.241514 16.1926 0.00634944 15.9678 0.00195384 15.5098C-0.00463957 14.7961 0.00195384 14.0845 0.00195384 13.3708C0.00195384 9.19987 0.00195384 5.02692 0.00195384 0.856042C-0.000243962 0.181522 0.195361 0 0.907448 0C3.8547 0 6.80195 0 9.74921 0Z" fill="white"/>
<path d="M20.8022 9.7382C20.8022 7.86316 20.8022 5.98605 20.8022 4.11101C20.8022 3.49013 21.0154 3.29416 21.6858 3.29416C23.0924 3.29416 24.4968 3.29829 25.9033 3.29004C26.2638 3.29004 26.5341 3.40143 26.7671 3.66546C28.411 5.51987 30.0638 7.37016 31.7187 9.21632C31.9099 9.42879 32 9.65569 32 9.93622C31.9935 11.7638 31.9978 13.5894 31.9957 15.417C31.9957 15.9904 31.7781 16.1946 31.1715 16.2008C31.0572 16.2008 30.9429 16.2008 30.8286 16.2008C30.2989 16.1946 30.0924 16.0378 30.0066 15.5469C29.655 13.5502 27.6132 12.4342 25.5341 12.8736C24 13.1974 23.0836 14.1174 22.7803 15.5696C22.6792 16.0543 22.4946 16.1946 21.9737 16.2029C20.9143 16.2194 20.8022 16.1183 20.8022 15.1344C20.8022 13.3377 20.8022 11.539 20.8022 9.74232V9.7382ZM25.4858 8.69445C26.3495 8.69445 27.2132 8.69032 28.077 8.69651C28.3825 8.69857 28.6396 8.62844 28.7737 8.35203C28.9055 8.07975 28.811 7.84666 28.6132 7.62594C27.7781 6.69152 26.9451 5.75503 26.1165 4.81441C25.9319 4.60401 25.7077 4.50087 25.4132 4.50294C24.5605 4.50912 23.7077 4.50294 22.855 4.50706C22.3143 4.50912 22.0792 4.72984 22.077 5.24346C22.0704 6.15107 22.0704 7.05868 22.077 7.9663C22.0814 8.47373 22.3209 8.69032 22.866 8.69445C23.7407 8.69857 24.6132 8.69445 25.488 8.69445H25.4858Z" fill="white"/>
<path d="M26.3472 19.0002C24.8483 18.9693 23.6395 17.7914 23.6812 16.4011C23.723 15.0046 24.9735 13.8681 26.4285 13.9031C27.9318 13.9403 29.1581 15.1222 29.1142 16.4919C29.068 17.9111 27.8329 19.0311 26.3472 19.0002ZM27.1867 16.4548C27.1867 16.0525 26.8241 15.7122 26.3977 15.7122C25.9669 15.7122 25.6087 16.0484 25.6065 16.4527C25.6065 16.8591 25.9625 17.1932 26.3955 17.1932C26.8263 17.1932 27.1867 16.8549 27.1867 16.4527V16.4548Z" fill="white"/>
<path d="M9.27233 16.4648C9.25915 17.8737 8.03277 19.0123 6.54046 18.9999C5.05915 18.9855 3.84816 17.8448 3.84376 16.4565C3.83937 15.0662 5.08332 13.8967 6.56464 13.9029C8.05475 13.907 9.28332 15.0724 9.27233 16.4669V16.4648ZM6.54706 17.1929C6.97563 17.1971 7.35145 16.8608 7.35805 16.4648C7.36684 16.0749 6.99101 15.716 6.57123 15.7119C6.14706 15.7078 5.76904 16.0481 5.76024 16.4421C5.75145 16.834 6.12288 17.1888 6.54706 17.1929Z" fill="white"/>
</g>
<defs>
<clipPath id="clip0_173_84">
<rect width="32" height="19" fill="white"/>
</clipPath>
</defs>
</svg>
